{"title":"Stonehearst Asylum 2014 Movies 720p BluRay AAC New +Sample â˜»rDXâ˜»","uid":11622573,"size":859528824,"categoryP":"video","categoryS":"hd___movies","magnet":"?xt=urn:btih:47684f6184c5a560f98efb1389f207247f722299&amp;dn=Stonehearst+Asylum+2014+Movies+720p+BluRay+AAC+New+%2BSample+%E2%98%BBrDX%E2%98%BB&amp;tr=udp%3A%2F%2Ftracker.openbittorrent.com%3A80&amp;tr=udp%3A%2F%2Fopen.demonii.com%3A1337&amp;tr=udp%3A%2F%2Ftracker.coppersurfer.tk%3A6969&amp;tr=udp%3A%2F%2Fexodus.desync.com%3A6969","seeders":2,"leechers":0,"uploader":"basicssom","files":2,"time":1417583498,"description":"----------------------------------------------------------------\nStonehearst Asylum 2014 English Movies 720p BluRay AAC New Source with Sample ~ â˜»rDXâ˜»\n\nSCREEN SHOTS &amp; POSTER:\n &lt;a href=&quot;\nhttp://planethost.co.nr/12/StonehearstAsylum/11.html&quot; rel=&quot;nofollow&quot; target=&quot;_NEW&quot;&gt;\nhttp://planethost.co.nr/12/StonehearstAsylum/11.html&lt;/a&gt; &lt;a href=&quot;\nhttp://planethost.co.nr/12/StonehearstAsylum/1.html&quot; rel=&quot;nofollow&quot; target=&quot;_NEW&quot;&gt;\nhttp://planethost.co.nr/12/StonehearstAsylum/1.html&lt;/a&gt; &lt;a href=&quot;\nhttp://planethost.co.nr/12/StonehearstAsylum/2.html&quot; rel=&quot;nofollow&quot; target=&quot;_NEW&quot;&gt;\nhttp://planethost.co.nr/12/StonehearstAsylum/2.html&lt;/a&gt; &lt;a href=&quot;\nhttp://planethost.co.nr/12/StonehearstAsylum/3.html&quot; rel=&quot;nofollow&quot; target=&quot;_NEW&quot;&gt;\nhttp://planethost.co.nr/12/StonehearstAsylum/3.html&lt;/a&gt; &lt;a href=&quot;\nhttp://planethost.co.nr/12/StonehearstAsylum/4.html&quot; rel=&quot;nofollow&quot; target=&quot;_NEW&quot;&gt;\nhttp://planethost.co.nr/12/StonehearstAsylum/4.html&lt;/a&gt; &lt;a href=&quot;\nhttp://planethost.co.nr/12/StonehearstAsylum/5.html&quot; rel=&quot;nofollow&quot; target=&quot;_NEW&quot;&gt;\nhttp://planethost.co.nr/12/StonehearstAsylum/5.html&lt;/a&gt; &lt;a href=&quot;\nhttp://planethost.co.nr/12/StonehearstAsylum/6.html&quot; rel=&quot;nofollow&quot; target=&quot;_NEW&quot;&gt;\nhttp://planethost.co.nr/12/StonehearstAsylum/6.html&lt;/a&gt; &lt;a href=&quot;\nhttp://planethost.co.nr/12/StonehearstAsylum/7.html&quot; rel=&quot;nofollow&quot; target=&quot;_NEW&quot;&gt;\nhttp://planethost.co.nr/12/StonehearstAsylum/7.html&lt;/a&gt; &lt;a href=&quot;\nhttp://planethost.co.nr/12/StonehearstAsylum/8.html&quot; rel=&quot;nofollow&quot; target=&quot;_NEW&quot;&gt;\nhttp://planethost.co.nr/12/StonehearstAsylum/8.html&lt;/a&gt; &lt;a href=&quot;\nhttp://planethost.co.nr/12/StonehearstAsylum/9.html&quot; rel=&quot;nofollow&quot; target=&quot;_NEW&quot;&gt;\nhttp://planethost.co.nr/12/StonehearstAsylum/9.html&lt;/a&gt; &lt;a href=&quot;\nhttp://planethost.co.nr/12/StonehearstAsylum/10.html&quot; rel=&quot;nofollow&quot; target=&quot;_NEW&quot;&gt;\nhttp://planethost.co.nr/12/StonehearstAsylum/10.html&lt;/a&gt;\n\nFormat                                   : MPEG-4\nFormat profile                           : Base Media\nCodec ID                                 : isom\nFile size                                : 816 MiB\nOverall bit rate mode                    : Variable\nOverall bit rate                         : 1 012 Kbps\n\nVideo\nID                                       : 1\nFormat                                   : AVC\nFormat/Info                              : Advanced Video Codec\nFormat profile                           : &lt;a class=&quot;__cf_email__&quot; href=&quot;/cdn-cgi/l/email-protection&quot; data-cfemail=&quot;bef6d7d9d6fef28a908f&quot;&gt;[email&amp;#160;protected]&lt;/a&gt;&lt;script cf-hash='f9e31' type=&quot;text/javascript&quot;&gt;\n/* &lt;![CDATA[ */!function(){try{var t=&quot;currentScript&quot;in document?document.currentScript:function(){for(var t=document.getElementsByTagName(&quot;script&quot;),e=t.length;e--;)if(t[e].getAttribute(&quot;cf-hash&quot;))return t[e]}();if(t&amp;&amp;t.previousSibling){var e,r,n,i,c=t.previousSibling,a=c.getAttribute(&quot;data-cfemail&quot;);if(a){for(e=&quot;&quot;,r=parseInt(a.substr(0,2),16),n=2;a.length-n;n+=2)i=parseInt(a.substr(n,2),16)^r,e+=String.fromCharCode(i);e=document.createTextNode(e),c.parentNode.replaceChild(e,c)}}}catch(u){}}();/* ]]&gt; */&lt;/script&gt;\nFormat settings, CABAC                   : Yes\nFormat settings, ReFrames                : 4 frames\nCodec ID                                 : avc1\nCodec ID/Info                            : Advanced Video Coding\nBit rate                                 : 914 Kbps\nMaximum bit rate                         : 4 473 Kbps\nWidth                                    : 1 280 pixels\nHeight                                   : 536 pixels\nDisplay aspect ratio                     : 2.40:1\nFrame rate mode                          : Constant\nFrame rate                               : 23.976 fps\nColor space                              : YUV\nChroma subsampling                       : 4:2:0\nBit depth                                : 8 bits\nScan type                                : Progressive\nBits/(Pixel*Frame)                       : 0.056\nStream size                              : 737 MiB (90%)\nWriting library                          : x264\nEncoded date                             : UTC 2014-12-02 20:24:54\nTagged date                              : UTC 2014-12-02 20:25:02\nColor primaries                          : BT.709\nMatrix coefficients                      : BT.709\n\nAudio\nID                                       : 2\nFormat                                   : AAC\nFormat/Info                              : Advanced Audio Codec\nFormat profile                           : LC\nCodec ID                                 : 40\nBit rate mode                            : Variable\nBit rate                                 : 93.8 Kbps\nMaximum bit rate                         : 105 Kbps\nChannel(s)                               : 2 channels\nChannel positions                        : Front: L R\nSampling rate                            : 48.0 KHz\nCompression mode                         : Lossy\nStream size                              : 75.6 MiB (9%)\nLanguage                                 : English","torrent":{"xt":"urn:btih:47684f6184c5a560f98efb1389f207247f722299","amp;dn":"Stonehearst+Asylum+2014+Movies+720p+BluRay+AAC+New+%2BSample+%E2%98%BBrDX%E2%98%BB","amp;tr":["udp%3A%2F%2Ftracker.openbittorrent.com%3A80","udp%3A%2F%2Fopen.demonii.com%3A1337","udp%3A%2F%2Ftracker.coppersurfer.tk%3A6969","udp%3A%2F%2Fexodus.desync.com%3A6969"],"infoHash":"47684f6184c5a560f98efb1389f207247f722299","infoHashBuffer":{"type":"Buffer","data":[71,104,79,97,132,197,165,96,249,142,251,19,137,242,7,36,127,114,34,153]},"announce":[],"urlList":[]}}